<?xml version="1.0" standalone="no"?><!DOCTYPE svg PUBLIC "-//W3C//DTD SVG 1.1//EN" "http://www.w3.org/Graphics/SVG/1.1/DTD/svg11.dtd"><svg t="1563192791414" class="icon" viewBox="0 0 1024 1024" version="1.1" xmlns="http://www.w3.org/2000/svg" p-id="5736" xmlns:xlink="http://www.w3.org/1999/xlink" width="200" height="200"><defs><style type="text/css"></style></defs><path d="M512 36.864C245.76 36.864 28.672 225.28 28.672 456.704c0 227.328 208.896 413.696 466.944 419.84 8.192 0 14.336 6.144 14.336 14.336v79.872c0 12.288 14.336 20.48 24.576 12.288 71.68-51.2 278.528-196.608 321.536-233.472 86.016-75.776 137.216-180.224 137.216-294.912C995.328 225.28 778.24 36.864 512 36.864z m239.616 485.376c-34.816 0-63.488-28.672-63.488-61.44 0-34.816 28.672-61.44 63.488-61.44 34.816 0 63.488 28.672 63.488 61.44s-28.672 61.44-63.488 61.44z m-241.664 0c-34.816 0-63.488-28.672-63.488-61.44 0-34.816 28.672-61.44 63.488-61.44 34.816 0 63.488 28.672 63.488 61.44 2.048 32.768-28.672 61.44-63.488 61.44z m-241.664 0c-34.816 0-63.488-28.672-63.488-61.44 0-34.816 28.672-61.44 63.488-61.44 34.816 0 63.488 28.672 63.488 61.44s-28.672 61.44-63.488 61.44z" p-id="5737"></path></svg>