<?xml version="1.0" standalone="no"?><!DOCTYPE svg PUBLIC "-//W3C//DTD SVG 1.1//EN" "http://www.w3.org/Graphics/SVG/1.1/DTD/svg11.dtd"><svg t="1563192764063" class="icon" viewBox="0 0 1024 1024" version="1.1" xmlns="http://www.w3.org/2000/svg" p-id="5002" xmlns:xlink="http://www.w3.org/1999/xlink" width="200" height="200"><defs><style type="text/css"></style></defs><path d="M726.109091 128c-11.636364-4.654545-25.6 0-30.254546 9.309091s0 25.6 9.309091 30.254545c209.454545 104.727273 295.563636 360.727273 190.836364 572.509091S535.272727 1037.963636 323.490909 933.236364 27.927273 570.181818 134.981818 360.727273c69.818182-141.963636 214.109091-232.727273 374.690909-235.054546L465.454545 169.890909c-9.309091 9.309091-9.309091 20.945455 0 30.254546s20.945455 9.309091 30.254546 0L579.490909 116.363636c9.309091-9.309091 9.309091-20.945455 0-30.254545L498.036364 4.654545c-9.309091-9.309091-20.945455-9.309091-30.254546 0s-9.309091 20.945455 0 30.254546L512 79.127273C251.345455 83.781818 44.218182 297.890909 46.545455 558.545455c4.654545 260.654545 218.763636 467.781818 479.418181 463.127272s467.781818-218.763636 463.127273-479.418182c-2.327273-174.545455-102.4-335.127273-262.981818-414.254545z" p-id="5003"></path><path d="M516.654545 302.545455c-11.636364 0-23.272727 9.309091-23.272727 23.272727v223.418182l162.909091 221.090909c6.981818 9.309091 20.945455 11.636364 32.581818 4.654545 9.309091-6.981818 11.636364-20.945455 4.654546-32.581818L539.927273 535.272727v-209.454545c0-11.636364-9.309091-23.272727-23.272728-23.272727z" p-id="5004"></path></svg>