<?xml version="1.0" standalone="no"?><!DOCTYPE svg PUBLIC "-//W3C//DTD SVG 1.1//EN" "http://www.w3.org/Graphics/SVG/1.1/DTD/svg11.dtd"><svg t="1563192745620" class="icon" viewBox="0 0 1189 1024" version="1.1" xmlns="http://www.w3.org/2000/svg" p-id="4237" xmlns:xlink="http://www.w3.org/1999/xlink" width="232.2265625" height="200"><defs><style type="text/css"></style></defs><path d="M594.128986 183.408689C441.98822-95.48747-7.535622-54.081783 1.190639 359.623298 6.172511 587.684321 185.34548 661.974461 325.044515 752.534251 459.838096 841.150193 587.61986 972.629653 595.319625 1024 598.44533 973.66935 738.484366 841.240705 863.213456 752.534251 1000.349253 656.38177 1182.506134 585.219058 1187.067332 357.24202 1194.863459-44.965077 764.304447-114.204407 594.128986 183.408689L594.128986 183.408689ZM835.828754 698.955485C731.945608 778.56524 616.242552 868.884038 594.128986 915.651828 575.735051 877.124288 446.315151 763.54724 351.238579 698.955485 226.578897 614.121119 53.335113 552.095946 54.769406 348.907545 57.388602-22.637308 505.833801-3.284216 594.128986 319.141564 696.22513-17.933018 1129.666228-25.769532 1132.297927 346.526267 1133.732816 549.881952 948.033246 612.850365 835.828754 698.955485L835.828754 698.955485Z" p-id="4238"></path></svg>