<?xml version="1.0" standalone="no"?><!DOCTYPE svg PUBLIC "-//W3C//DTD SVG 1.1//EN" "http://www.w3.org/Graphics/SVG/1.1/DTD/svg11.dtd"><svg t="1563192812116" class="icon" viewBox="0 0 1024 1024" version="1.1" xmlns="http://www.w3.org/2000/svg" p-id="6453" xmlns:xlink="http://www.w3.org/1999/xlink" width="200" height="200"><defs><style type="text/css"></style></defs><path d="M466.115043 212.141887L52.805458 624.833208c-23.841811 23.764528-34.120453 51.97283-10.278641 75.737358s52.166038 13.717736 75.949886-10.24l347.309887-346.61434v624.060378c0 31.106415 13.524528 56.223396 44.53434 56.223396s48.437132-25.116981 48.437132-56.223396v-624.060378l347.000755 346.227925c23.764528 23.764528 51.393208 34.584151 75.350943 10.819623s14.316679-52.74566-9.660377-76.510189l-413.464151-412.498113s-24.749887-28.401509-43.51034-28.40151c-22.199547 0-48.359849 28.787925-48.359849 28.787925zM92.007269 92.739623h839.737963c38.757434 0 61.053585-11.78566 61.053585-45.403774s-19.320755-47.335849-61.053585-47.335849H92.084552c-38.641509 0-61.053585 12.944906-61.053584 46.369811s23.146264 46.369811 61.053584 46.369812z" fill="#333333" p-id="6454"></path></svg>